<svg width="527" height="67" viewBox="0 0 527 67" fill="none" xmlns="http://www.w3.org/2000/svg">
<path fill-rule="evenodd" clip-rule="evenodd" d="M198.064 0.919998C208.204 0.919998 216.304 3.5 222.364 8.66C228.424 13.76 231.454 22.04 231.454 33.5C231.454 44.96 228.424 53.27 222.364 58.43C216.304 63.53 208.204 66.08 198.064 66.08C187.924 66.08 179.824 63.53 173.764 58.43C167.704 53.27 164.674 44.96 164.674 33.5C164.674 22.1 167.704 13.82 173.764 8.66C179.884 3.5 187.984 0.919998 198.064 0.919998ZM5.49 6.5C5.49 5.84 5.34 5.39 5.04 5.15C4.8 4.91 4.23 4.7 3.33 4.52L0 3.8V2H29.34V3.8L26.01 4.52C25.11 4.7 24.51 4.91 24.21 5.15C23.97 5.39 23.85 5.84 23.85 6.5V60.5C23.85 61.16 23.97 61.61 24.21 61.85C24.51 62.09 25.11 62.3 26.01 62.48L29.34 63.2V65H0V63.2L3.33 62.48C4.23 62.3 4.8 62.09 5.04 61.85C5.34 61.61 5.49 61.16 5.49 60.5V6.5ZM39.847 6.5C39.847 5.84 39.697 5.39 39.397 5.15C39.157 4.91 38.587 4.7 37.687 4.52L34.357 3.8V2H59.287L88.267 38.54V6.41C88.267 5.75 88.117 5.33 87.817 5.15C87.577 4.91 87.037 4.7 86.197 4.52L82.957 3.8V2H96.637V3.8L93.307 4.52C92.407 4.7 91.807 4.91 91.507 5.15C91.267 5.39 91.147 5.84 91.147 6.5V65H87.907L42.727 7.85V60.59C42.727 61.25 42.847 61.7 43.087 61.94C43.387 62.12 43.957 62.3 44.797 62.48L48.037 63.2V65H34.357V63.2L37.687 62.48C38.587 62.3 39.157 62.09 39.397 61.85C39.697 61.61 39.847 61.16 39.847 60.5V6.5ZM149.839 10.73C150.979 12.71 152.179 15.65 153.439 19.55H155.689V2H101.329V3.8L104.659 4.52C105.559 4.7 106.129 4.91 106.369 5.15C106.669 5.39 106.819 5.84 106.819 6.5V60.5C106.819 61.16 106.669 61.61 106.369 61.85C106.129 62.09 105.559 62.3 104.659 62.48L101.329 63.2V65H131.209V63.2L127.339 62.39C126.439 62.21 125.839 62 125.539 61.76C125.299 61.52 125.179 61.07 125.179 60.41V34.13H147.679V31.43H125.179V4.7H136.879C140.479 4.7 143.269 5.21 145.249 6.23C147.229 7.25 148.759 8.75 149.839 10.73ZM206.434 60.5C204.514 62.48 201.724 63.47 198.064 63.47C194.404 63.47 191.584 62.48 189.604 60.5C187.684 58.52 186.364 55.4 185.644 51.14C184.924 46.88 184.564 41 184.564 33.5C184.564 26 184.924 20.12 185.644 15.86C186.364 11.6 187.684 8.48 189.604 6.5C191.584 4.52 194.404 3.53 198.064 3.53C201.724 3.53 204.514 4.52 206.434 6.5C208.414 8.48 209.764 11.6 210.484 15.86C211.204 20.12 211.564 26 211.564 33.5C211.564 41 211.204 46.88 210.484 51.14C209.764 55.4 208.414 58.52 206.434 60.5ZM276.77 44.21C276.29 41.27 275.72 39.23 275.06 38.09C274.46 36.89 273.47 36.11 272.09 35.75C270.71 35.33 268.43 35.12 265.25 35.12H262.64V60.41C262.64 61.07 262.76 61.52 263 61.76C263.3 62 263.9 62.21 264.8 62.39L268.67 63.2V65H238.79V63.2L242.12 62.48C243.02 62.3 243.59 62.09 243.83 61.85C244.13 61.61 244.28 61.16 244.28 60.5V6.5C244.28 5.84 244.13 5.39 243.83 5.15C243.59 4.91 243.02 4.7 242.12 4.52L238.79 3.8V2H265.25C273.29 2 279.68 2.54 284.42 3.62C289.16 4.64 292.61 6.35 294.77 8.75C296.93 11.15 298.01 14.42 298.01 18.56C298.01 23.18 296.63 26.75 293.87 29.27C291.11 31.73 286.64 33.41 280.46 34.31C284 34.55 286.82 35.12 288.92 36.02C291.08 36.92 292.76 38.36 293.96 40.34C295.16 42.26 296.09 44.93 296.75 48.35L297.74 53.75C298.22 56.33 298.55 58.07 298.73 58.97C298.97 59.87 299.27 60.56 299.63 61.04C300.05 61.52 300.68 61.76 301.52 61.76C303.02 61.76 304.28 60.65 305.3 58.43L307.19 60.05C306.35 61.79 305.06 63.2 303.32 64.28C301.64 65.36 298.88 65.9 295.04 65.9C291.2 65.9 288.17 65.48 285.95 64.64C283.73 63.8 281.99 62.33 280.73 60.23C279.47 58.07 278.51 54.98 277.85 50.96L276.77 44.21ZM266.06 32.42H262.64V4.7H266.06C269.54 4.7 272.21 5.18 274.07 6.14C275.99 7.1 277.31 8.57 278.03 10.55C278.75 12.53 279.11 15.2 279.11 18.56C279.11 21.92 278.75 24.59 278.03 26.57C277.31 28.55 275.99 30.02 274.07 30.98C272.21 31.94 269.54 32.42 266.06 32.42ZM318.791 60.59C318.791 61.25 318.911 61.7 319.151 61.94C319.451 62.12 320.021 62.3 320.861 62.48L324.101 63.2V65H310.421V63.2L313.751 62.48C314.651 62.3 315.221 62.09 315.461 61.85C315.761 61.61 315.911 61.16 315.911 60.5V6.5C315.911 5.84 315.761 5.39 315.461 5.15C315.221 4.91 314.651 4.7 313.751 4.52L310.421 3.8V2H333.461L352.001 42.05L368.561 2H392.321V3.8L388.991 4.52C388.091 4.7 387.491 4.91 387.191 5.15C386.951 5.39 386.831 5.84 386.831 6.5V60.5C386.831 61.16 386.951 61.61 387.191 61.85C387.491 62.09 388.091 62.3 388.991 62.48L392.321 63.2V65H363.161V63.2L366.401 62.48C367.241 62.3 367.781 62.12 368.021 61.94C368.321 61.7 368.471 61.25 368.471 60.59V9.65L345.611 65H342.911L318.791 11.99V60.59ZM436.324 62.84L432.454 63.2V65H462.154V63.2L458.824 62.84C458.104 62.78 457.594 62.6 457.294 62.3C456.994 62 456.664 61.46 456.304 60.68L429.934 1.01H427.054L402.124 60.68C401.764 61.46 401.434 62 401.134 62.3C400.834 62.6 400.324 62.78 399.604 62.84L396.274 63.2V65H409.954V63.2L406.084 62.84C405.244 62.72 404.824 62.39 404.824 61.85C404.824 61.55 404.914 61.19 405.094 60.77L410.494 47.63H431.374L437.314 60.77C437.494 61.19 437.584 61.55 437.584 61.85C437.584 62.39 437.164 62.72 436.324 62.84ZM430.204 44.93L420.484 23.42L411.574 44.93H430.204ZM505.856 61.85C505.616 61.61 505.496 61.16 505.496 60.5V4.52H507.566C511.226 4.52 514.046 5.12 516.026 6.32C518.066 7.52 519.596 9.08 520.616 11C521.696 12.92 523.016 15.98 524.576 20.18H526.556V2H466.076V20.18H468.056C469.616 15.98 470.906 12.92 471.926 11C473.006 9.08 474.536 7.52 476.516 6.32C478.556 5.12 481.406 4.52 485.066 4.52H487.136V60.5C487.136 61.16 486.986 61.61 486.686 61.85C486.446 62.09 485.876 62.3 484.976 62.48L481.646 63.2V65H510.986V63.2L507.656 62.48C506.756 62.3 506.156 62.09 505.856 61.85Z" fill="#171A22"/>
</svg>
