<svg width="36" height="36" viewBox="0 0 36 36" fill="none" xmlns="http://www.w3.org/2000/svg">
<path d="M18 36C27.941 36 36 27.94 36 18C36 8.06 27.941 0 18 0C8.059 0 0 8.06 0 18C0 27.94 8.059 36 18 36Z" fill="#806799"/>
<path d="M24.244 11.76C24.005 11.52 23.649 11.44 23.331 11.55L11.081 15.93C10.751 16.04 10.523 16.35 10.502 16.7C10.481 17.05 10.67 17.37 10.984 17.53L14.997 19.54L20.125 15.88L16.461 21L18.467 25.02C18.617 25.31 18.92 25.5 19.25 25.5C19.268 25.5 19.286 25.5 19.303 25.5C19.653 25.48 19.957 25.25 20.075 24.92L24.45 12.67C24.563 12.35 24.483 12 24.244 11.76Z" fill="white"/>
</svg>
